<svg viewBox="0 0 1422 800" xmlns="http://www.w3.org/2000/svg">
  <style>
    @keyframes rainbow {
      0% {
        stroke: rgb(216, 26, 27);
      }
      14.28% {
        stroke: rgb(252, 135, 9);
      }
      28.56% {
        stroke: rgb(255, 202, 0);
      }
      42.84% {
        stroke: rgb(178, 198, 13);
      }
      57.12% {
        stroke: rgb(27, 91, 181);
      }
      71.4% {
        stroke: rgb(159, 95, 176);
      }
      85.68% {
        stroke: rgb(255, 44, 113);
      }
      100% {
        stroke: rgb(216, 26, 27);
      }
    }

    .rainbow {

      animation: 30s infinite linear rainbow;
      stroke-linejoin: round;
      fill: none;
      stroke-width: 3.5;
      shape-rendering: crispEdges;
    }
  </style>
  <g>
    <polygon class="rainbow" points="1422,0 1422,200 1066.5,0"></polygon>
    <polygon class="rainbow" points="711,200 1066.5,0 711,0"></polygon>
    <polygon class="rainbow" points="1066.5,300 1066.5,200 888.75,200"></polygon>
    <polygon class="rainbow" points="711,200 888.75,200 711,300"></polygon>
    <polygon class="rainbow" points="888.75,400 711,300 888.75,300"></polygon>
    <polygon class="rainbow" points="1066.5,300 1066.5,400 888.75,300"></polygon>
    <polygon class="rainbow" points="1066.5,200 1066.5,400 1422,400"></polygon>
    <polygon class="rainbow" points="711,200 355.5,200 711,0"></polygon>
    <polygon class="rainbow" points="0,0 355.5,200 355.5,0"></polygon>
    <polygon class="rainbow" points="355.5,200 355.5,400 0,400"></polygon>
    <polygon class="rainbow" points="355.5,200 711,200 355.5,400"></polygon>
    <polygon class="rainbow" points="711,500 711,400 533.25,400"></polygon>
    <polygon class="rainbow" points="533.25,500 355.5,400 355.5,500"></polygon>
    <polygon class="rainbow" points="355.5,600 355.5,500 533.25,500"></polygon>
    <polygon class="rainbow" points="533.25,500 533.25,600 711,600"></polygon>
    <polygon class="rainbow" points="0,400 0,600 355.5,400"></polygon>
    <polygon class="rainbow" points="0,600 0,800 355.5,600"></polygon>
    <polygon class="rainbow" points="711,800 711,600 355.5,800"></polygon>
    <polygon class="rainbow" points="1066.5,400 1422,600 1066.5,600"></polygon>
    <polygon class="rainbow" points="711,600 1066.5,400 1066.5,600"></polygon>
    <polygon class="rainbow" points="711,800 1066.5,600 1066.5,800"></polygon>
    <polygon class="rainbow" points="1066.5,800 1422,600 1422,800"></polygon>
  </g>
</svg>
